<svg width="141" height="26" viewBox="0 0 141 26" fill="none" xmlns="http://www.w3.org/2000/svg">
<path d="M45.5457 2.1H48.6707V25.125H45.5457V13.725H43.6957V24.1H40.6207V17.3L38.7207 19.85C36.7707 18.75 35.4957 16.9 34.7457 14.65C33.9457 17.175 32.5957 19.275 30.5457 20.525L28.4957 18.1C31.9457 16.05 33.1707 11.9 33.1707 8V4.125H36.3707V7.75C36.3707 11.725 37.4457 15.475 40.6207 17.25V2.5H43.6957V11.075H45.5457V2.1ZM62.4688 19.925H71.2688V22.625H50.4188V19.925H59.1688V16.5H52.8188V8.7H65.6688V6.225H52.7938V3.6H68.9188V11.275H56.0938V13.85H69.4438V16.5H62.4688V19.925ZM82.3168 5.175C79.4418 5.175 77.6168 5.9 77.6168 7.325C77.6168 8.75 79.4418 9.475 82.3168 9.475C85.2418 9.475 87.0418 8.75 87.0418 7.325C87.0418 5.9 85.2418 5.175 82.3168 5.175ZM82.3168 12.1C77.3668 12.1 74.0418 10.25 74.0418 7.325C74.0418 4.425 77.3668 2.55 82.3168 2.55C87.2918 2.55 90.5918 4.425 90.5918 7.325C90.5918 10.25 87.2918 12.1 82.3168 12.1ZM77.6918 17.85V22.125H90.4918V24.75H74.3418V17.85H77.6918ZM71.9168 13.3H92.7668V15.925H84.2168V19.875H80.8418V15.925H71.9168V13.3ZM100.929 8C100.929 9.625 102.154 10.6 103.879 10.6C105.604 10.6 106.829 9.625 106.829 8C106.829 6.4 105.604 5.425 103.879 5.425C102.154 5.425 100.929 6.4 100.929 8ZM110.004 8C110.004 11.075 107.404 13.25 103.879 13.25C100.379 13.25 97.7539 11.075 97.7539 8C97.7539 4.975 100.379 2.775 103.879 2.775C107.404 2.775 110.004 4.975 110.004 8ZM103.804 20.825V22.325H116.379V24.875H100.529V18.45H112.454V17.075H100.504V14.525H115.704V20.825H103.804ZM115.704 6.55H118.729V9.25H115.704V13.625H112.404V2.125H115.704V6.55ZM132.977 11.75L133.352 14.375C129.927 14.925 126.852 15.025 122.277 15.025H120.252V7.925H127.577V6.075H120.227V3.425H130.827V10.375H123.502V12.375C127.302 12.35 129.977 12.225 132.977 11.75ZM126.127 19.4V22.3H134.977V19.4H126.127ZM122.877 24.875V16.8H138.202V24.875H122.877ZM134.877 2.15H138.202V15.775H134.877V2.15Z" fill="black"/>
<path fill-rule="evenodd" clip-rule="evenodd" d="M19 6.60613C19 7.56254 18.6201 8.47977 17.9438 9.15606C17.2675 9.83234 16.3503 10.2123 15.3939 10.2123C14.4375 10.2123 13.5202 9.83234 12.8439 9.15606C12.1677 8.47977 11.7877 7.56254 11.7877 6.60613C11.7877 5.64973 12.1677 4.73249 12.8439 4.05621C13.5202 3.37993 14.4375 3 15.3939 3C16.3503 3 17.2675 3.37993 17.9438 4.05621C18.6201 4.73249 19 5.64973 19 6.60613ZM10.6482 4.00539C9.65599 3.70494 8.60721 3.64101 7.58586 3.81871C6.56451 3.99641 5.59896 4.41081 4.76653 5.02871C3.93411 5.64662 3.25794 6.45086 2.79218 7.37704C2.32641 8.30321 2.084 9.32559 2.08435 10.3623V15.2277C2.08435 15.3593 2.05842 15.4897 2.00803 15.6113C1.95765 15.733 1.88381 15.8435 1.79072 15.9366C1.69763 16.0296 1.58711 16.1035 1.46548 16.1539C1.34385 16.2043 1.21349 16.2302 1.08184 16.2302C0.794918 16.2302 0.519748 16.3442 0.316864 16.547C0.113979 16.7499 0 17.0251 0 17.312C0 17.5989 0.113979 17.8741 0.316864 18.077C0.519748 18.2799 0.794918 18.3939 1.08184 18.3939H16.3704C16.6573 18.3939 16.9325 18.2799 17.1354 18.077C17.3383 17.8741 17.4522 17.5989 17.4522 17.312C17.4522 17.0251 17.3383 16.7499 17.1354 16.547C16.9325 16.3442 16.6573 16.2302 16.3704 16.2302C16.1045 16.2302 15.8495 16.1246 15.6615 15.9366C15.4735 15.7486 15.3679 15.4936 15.3679 15.2277V12.0153C14.4305 12.0113 13.5102 11.7637 12.6972 11.2969C11.8843 10.83 11.2067 10.1599 10.7308 9.3522C10.2549 8.54454 9.99704 7.62705 9.98256 6.68972C9.96808 5.75238 10.1975 4.82737 10.6482 4.00539ZM6.20255 21.3913C6.20255 21.1044 6.31653 20.8292 6.51941 20.6263C6.7223 20.4234 6.99747 20.3094 7.28439 20.3094H10.1693C10.4562 20.3094 10.7314 20.4234 10.9343 20.6263C11.1372 20.8292 11.2511 21.1044 11.2511 21.3913C11.2511 21.6782 11.1372 21.9534 10.9343 22.1563C10.7314 22.3591 10.4562 22.4731 10.1693 22.4731H7.28439C6.99747 22.4731 6.7223 22.3591 6.51941 22.1563C6.31653 21.9534 6.20255 21.6782 6.20255 21.3913Z" fill="black"/>
<circle cx="15.5" cy="6.5" r="4.5" fill="#DC3A3A"/>
</svg>
