<svg width="78" height="61" viewBox="0 0 78 61" fill="none" xmlns="http://www.w3.org/2000/svg">
<g style="mix-blend-mode:luminosity">
<path d="M46.6005 33.6878C46.1189 32.161 36.9352 30.7979 20.4919 35.9841C4.0486 41.1702 1.76029 45.7486 2.24182 47.2753C2.72335 48.8021 15.6461 35.911 32.0894 30.7248C48.5327 25.5387 24.1522 38.9066 46.6005 33.6878Z" fill="#BDD4FF"/>
<path fill-rule="evenodd" clip-rule="evenodd" d="M39.5964 2.87894C41.0155 1.34165 43.0477 0.37886 45.3048 0.37886C49.5319 0.37886 52.9703 3.7556 53.0697 7.95876C57.2731 8.05789 60.6501 11.4964 60.6501 15.7236C60.6501 16.02 60.6335 16.3125 60.6012 16.6002C62.8974 17.9496 64.4387 20.4455 64.4387 23.3013C64.4387 23.6053 64.4212 23.9051 64.3873 24.1999C65.8223 25.6092 66.7124 27.5716 66.7124 29.7418C66.7124 32.5957 65.1732 35.0901 62.8796 36.4401C63.8585 37.7396 64.4387 39.3563 64.4387 41.1086C64.4387 43.4493 63.4032 45.5483 61.7654 46.9723C61.7794 47.1629 61.7865 47.3554 61.7865 47.5495C61.7865 51.8392 58.3091 55.3166 54.0195 55.3166C53.6096 55.3166 53.2071 55.2849 52.8144 55.2237C51.9353 58.5488 48.9063 61 45.3048 61C42.9593 61 40.8566 59.9603 39.4324 58.3166C38.0083 59.9603 35.9056 61 33.56 61C30.5143 61 27.8781 59.247 26.6053 56.6949C25.2855 57.7304 23.6222 58.3478 21.8147 58.3478C17.9527 58.3478 14.749 55.5291 14.1486 51.8368C13.8059 51.883 13.456 51.9069 13.1006 51.9069C8.81093 51.9069 5.3335 48.4294 5.3335 44.1398C5.3335 43.1684 5.51183 42.2386 5.83756 41.3814C4.3135 39.9633 3.3602 37.94 3.3602 35.694C3.3602 34.3156 3.71924 33.0211 4.3489 31.8989C3.30479 30.5763 2.68164 28.906 2.68164 27.0901C2.68164 23.5379 5.06622 20.5427 8.32194 19.6178C8.47732 16.5871 10.3699 14.0154 13.0234 12.8789C12.9496 12.4489 12.9112 12.0069 12.9112 11.5558C12.9112 7.2662 16.3886 3.78877 20.6783 3.78877C22.7454 3.78877 24.6239 4.59629 26.0156 5.9131C26.8469 2.51865 29.9093 0 33.56 0C35.9973 0 38.1723 1.1226 39.5964 2.87894Z" fill="#7FB3FF"/>
<circle cx="28.5527" cy="13.3167" r="4.37395" transform="rotate(-90 28.5527 13.3167)" fill="white"/>
<ellipse cx="28.675" cy="13.2076" rx="3.38981" ry="3.17111" transform="rotate(-90 28.675 13.2076)" fill="black"/>
<circle cx="38.1884" cy="15.6353" r="4.37395" transform="rotate(-90 38.1884 15.6353)" fill="white"/>
<ellipse cx="38.3098" cy="15.7447" rx="3.38981" ry="3.17111" transform="rotate(-90 38.3098 15.7447)" fill="black"/>
<path d="M16.5605 26.8283C23.1599 21.5795 39.6195 14.2312 52.663 26.8283" stroke="#282828" stroke-width="2.18698" stroke-linecap="round"/>
<path d="M67.124 18.8792C67.8914 21.3122 41.7204 45.8525 25.2771 51.0386C8.83381 56.2248 3.67619 51.7056 2.90884 49.2726C2.14148 46.8396 21.6228 54.7432 38.0661 49.5571C54.5094 44.3709 46.0605 28.4886 67.124 18.8792Z" fill="#25324C"/>
<path d="M70.435 17.4156L68.8221 16.411L69.1843 15.9955L70.6146 16.2424L73.1665 13.3147L68.6426 10.5069L69.1013 9.96648L74.6662 11.5863L76.4759 9.50439C76.5948 9.368 76.7358 9.2998 76.8989 9.2998C77.0617 9.2998 77.2025 9.368 77.3214 9.50439C77.4403 9.64079 77.4997 9.80493 77.4997 9.99682C77.4997 10.1878 77.4403 10.3517 77.3214 10.4885L75.5259 12.5746L76.9266 18.9458L76.4679 19.4855L74.0083 14.2953L71.4798 17.1955L71.6827 18.8506L71.3094 19.2795L70.435 17.4156Z" fill="#25324C"/>
</g>
</svg>
