<svg width="32" height="32" viewBox="0 0 32 32" fill="none" xmlns="http://www.w3.org/2000/svg">
<path fill-rule="evenodd" clip-rule="evenodd" d="M20.0618 13.1557C20.0618 16.9701 16.9696 20.0623 13.1552 20.0623C9.34072 20.0623 6.24851 16.9701 6.24851 13.1557C6.24851 9.34121 9.34072 6.249 13.1552 6.249C16.9696 6.249 20.0618 9.34121 20.0618 13.1557ZM18.6702 20.5312C17.1329 21.6825 15.2237 22.3645 13.1552 22.3645C8.06924 22.3645 3.94629 18.2416 3.94629 13.1557C3.94629 8.06973 8.06924 3.94678 13.1552 3.94678C18.2411 3.94678 22.364 8.06973 22.364 13.1557C22.364 15.2241 21.6821 17.1333 20.5307 18.6707L28.5565 26.6965L26.696 28.557L18.6702 20.5312Z" fill="#4C6FFF"/>
</svg>
