<svg width="21" height="20" viewBox="0 0 21 20" fill="none" xmlns="http://www.w3.org/2000/svg">
<path fill-rule="evenodd" clip-rule="evenodd" d="M11.8844 0.926911C12.3413 0.43198 12.9955 0.122008 13.7222 0.122008C15.083 0.122008 16.1899 1.20903 16.222 2.56212C17.5751 2.59411 18.6622 3.70105 18.6622 5.06191C18.6622 5.15731 18.6569 5.25145 18.6465 5.34407C19.3858 5.77847 19.882 6.58202 19.882 7.50146C19.882 7.59941 19.8764 7.69604 19.8654 7.79106C20.3274 8.24476 20.6139 8.87649 20.6139 9.57514C20.6139 10.4938 20.1185 11.2968 19.3802 11.7315C19.6953 12.1498 19.882 12.6703 19.882 13.2343C19.882 13.9879 19.5487 14.6635 19.0215 15.122C19.026 15.1833 19.0283 15.2453 19.0283 15.3078C19.0283 16.6888 17.9088 17.8083 16.5278 17.8083C16.3958 17.8083 16.2663 17.7981 16.1398 17.7784C15.8569 18.849 14.8817 19.6382 13.7222 19.6382C12.9671 19.6382 12.2901 19.3034 11.8316 18.7742C11.3731 19.3034 10.6962 19.6382 9.94101 19.6382C8.96049 19.6382 8.11179 19.0738 7.70202 18.2522C7.27717 18.5855 6.74171 18.7843 6.15983 18.7843C4.91651 18.7843 3.88514 17.8768 3.69186 16.6881C3.58145 16.703 3.46875 16.7107 3.35425 16.7107C1.97326 16.7107 0.853751 15.5912 0.853751 14.2102C0.853751 13.8975 0.911169 13.5981 1.01604 13.3222C0.525458 12.8656 0.218603 12.2143 0.218603 11.4913C0.218603 11.0476 0.334187 10.6308 0.536888 10.2695C0.200668 9.84372 0 9.30591 0 8.72124C0 7.57753 0.767849 6.61317 1.81616 6.31553C1.86622 5.33995 2.47544 4.5121 3.32959 4.14623C3.30583 4.0078 3.29346 3.86549 3.29346 3.72028C3.29346 2.33929 4.41297 1.21978 5.79396 1.21978C6.45942 1.21978 7.06417 1.47973 7.51219 1.90363C7.77983 0.810838 8.76573 0 9.94101 0C10.7257 0 11.426 0.361438 11.8844 0.926911Z" fill="#353535"/>
<circle cx="7.61721" cy="8.61716" r="2.61721" transform="rotate(-90 7.61721 8.61716)" fill="white"/>
<ellipse cx="7.69045" cy="8.55223" rx="2.02834" ry="1.89748" transform="rotate(-90 7.69045 8.55223)" fill="black"/>
<circle cx="13.3828" cy="10.0049" r="2.61721" transform="rotate(-90 13.3828 10.0049)" fill="white"/>
<ellipse cx="13.4561" cy="10.0703" rx="2.02834" ry="1.89748" transform="rotate(-90 13.4561 10.0703)" fill="black"/>
</svg>
