<svg width="21" height="20" viewBox="0 0 21 20" fill="none" xmlns="http://www.w3.org/2000/svg">
<path d="M5.92593 5.92593C6.71175 5.92593 7.46539 5.61376 8.02106 5.05809C8.57672 4.50243 8.88889 3.74879 8.88889 2.96296C8.88889 2.17714 8.57672 1.42349 8.02106 0.867832C7.46539 0.312168 6.71175 0 5.92593 0C5.1401 0 4.38646 0.312168 3.83079 0.867832C3.27513 1.42349 2.96296 2.17714 2.96296 2.96296C2.96296 3.74879 3.27513 4.50243 3.83079 5.05809C4.38646 5.61376 5.1401 5.92593 5.92593 5.92593ZM0 9.25926C0 8.76812 0.195105 8.29709 0.542395 7.9498C0.889684 7.60251 1.36071 7.40741 1.85185 7.40741H6.57407C6.38994 7.8796 6.29573 8.38206 6.2963 8.88889C6.2963 10.2667 6.98 11.4852 8.02741 12.2222H6.2963C5.75461 12.2222 5.22327 12.3706 4.76004 12.6514C4.29681 12.9321 3.91942 13.3345 3.66889 13.8148C2.24963 13.4496 1.34148 12.7393 0.780741 11.9333C-8.83032e-08 10.8111 0 9.64889 0 9.44444V9.25926ZM17.0719 13.8148C18.4911 13.4496 19.3993 12.7393 19.96 11.9333C20.7407 10.8111 20.7407 9.64815 20.7407 9.44444V9.25926C20.7407 8.76812 20.5456 8.29709 20.1983 7.9498C19.8511 7.60251 19.38 7.40741 18.8889 7.40741H14.1667C14.3459 7.86667 14.4444 8.36593 14.4444 8.88889C14.4444 10.2667 13.7607 11.4852 12.7133 12.2222H14.4444C14.9861 12.2222 15.5175 12.3706 15.9807 12.6514C16.4439 12.9321 16.8213 13.3345 17.0719 13.8148ZM17.7778 2.96296C17.7778 3.74879 17.4656 4.50243 16.9099 5.05809C16.3543 5.61376 15.6006 5.92593 14.8148 5.92593C14.029 5.92593 13.2753 5.61376 12.7197 5.05809C12.164 4.50243 11.8519 3.74879 11.8519 2.96296C11.8519 2.17714 12.164 1.42349 12.7197 0.867832C13.2753 0.312168 14.029 0 14.8148 0C15.6006 0 16.3543 0.312168 16.9099 0.867832C17.4656 1.42349 17.7778 2.17714 17.7778 2.96296ZM4.44444 15.1852C4.44444 14.694 4.63955 14.223 4.98684 13.8757C5.33413 13.5284 5.80515 13.3333 6.2963 13.3333H14.4444C14.6876 13.3333 14.9284 13.3812 15.1531 13.4743C15.3778 13.5674 15.5819 13.7038 15.7539 13.8757C15.9259 14.0477 16.0623 14.2518 16.1553 14.4765C16.2484 14.7012 16.2963 14.942 16.2963 15.1852V15.3704C16.2963 15.5741 16.2963 16.737 15.5156 17.8593C14.7007 19.0304 13.1526 20 10.3704 20C7.58889 20 6.04 19.0304 5.22518 17.8593C4.44444 16.737 4.44444 15.5748 4.44444 15.3704V15.1852ZM10.3704 11.8519C11.1562 11.8519 11.9098 11.5397 12.4655 10.984C13.0212 10.4284 13.3333 9.67472 13.3333 8.88889C13.3333 8.10306 13.0212 7.34942 12.4655 6.79376C11.9098 6.23809 11.1562 5.92593 10.3704 5.92593C9.58454 5.92593 8.8309 6.23809 8.27524 6.79376C7.71958 7.34942 7.40741 8.10306 7.40741 8.88889C7.40741 9.67472 7.71958 10.4284 8.27524 10.984C8.8309 11.5397 9.58454 11.8519 10.3704 11.8519Z" fill="#2E48B0"/>
</svg>
