<svg width="19" height="18" viewBox="0 0 19 18" fill="none" xmlns="http://www.w3.org/2000/svg">
<path fill-rule="evenodd" clip-rule="evenodd" d="M2.21416 1.95482C2.18034 1.95465 2.14681 1.96116 2.11551 1.97399C2.08421 1.98681 2.05576 2.0057 2.03178 2.02956C2.0078 2.05341 1.98878 2.08177 1.97579 2.11301C1.96281 2.14424 1.95612 2.17773 1.95613 2.21156V13.3162H13.5795V10.2341C13.5795 9.97492 13.6825 9.72631 13.8658 9.54301C14.0491 9.35971 14.2977 9.25673 14.5569 9.25673C14.8161 9.25673 15.0647 9.35971 15.248 9.54301C15.4313 9.72631 15.5343 9.97492 15.5343 10.2341V15.7884C15.5343 17.0096 14.5439 18 13.3228 18H2.21156C0.990443 18 0 17.0096 0 15.7884V2.21156C0.000690737 1.62477 0.234273 1.06226 0.649434 0.647591C1.06459 0.232919 1.62738 -4.06554e-07 2.21416 0H10.2368C10.496 0 10.7446 0.102977 10.9279 0.286277C11.1112 0.469577 11.2142 0.718185 11.2142 0.977411C11.2142 1.23664 11.1112 1.48524 10.9279 1.66854C10.7446 1.85184 10.496 1.95482 10.2368 1.95482H2.21416ZM4.68245 3.79626C4.57549 3.79626 4.46957 3.81733 4.37075 3.85826C4.27193 3.8992 4.18214 3.95919 4.10651 4.03483C4.03087 4.11046 3.97087 4.20025 3.92994 4.29907C3.88901 4.39789 3.86794 4.50381 3.86794 4.61077C3.86794 4.71774 3.88901 4.82365 3.92994 4.92247C3.97087 5.02129 4.03087 5.11108 4.10651 5.18672C4.18214 5.26235 4.27193 5.32235 4.37075 5.36328C4.46957 5.40421 4.57549 5.42528 4.68245 5.42528H7.15074C7.36676 5.42528 7.57393 5.33947 7.72668 5.18672C7.87943 5.03397 7.96525 4.82679 7.96525 4.61077C7.96525 4.39475 7.87943 4.18758 7.72668 4.03483C7.57393 3.88208 7.36676 3.79626 7.15074 3.79626H4.68245ZM3.86794 8.34839C3.86794 7.89878 4.23284 7.53388 4.68245 7.53388H5.91659C6.13262 7.53388 6.33979 7.6197 6.49254 7.77245C6.64529 7.9252 6.7311 8.13237 6.7311 8.34839C6.7311 8.56441 6.64529 8.77159 6.49254 8.92434C6.33979 9.07709 6.13262 9.1629 5.91659 9.1629H4.68245C4.46643 9.1629 4.25926 9.07709 4.10651 8.92434C3.95376 8.77159 3.86794 8.56441 3.86794 8.34839ZM12.1199 9.69592C12.2514 9.6721 12.3724 9.6084 12.4666 9.51347L17.8084 4.14683C17.9306 4.02568 18.0275 3.88154 18.0937 3.72273C18.1599 3.56392 18.1939 3.39359 18.1939 3.22155C18.1939 3.04951 18.1599 2.87917 18.0937 2.72036C18.0275 2.56155 17.9306 2.41741 17.8084 2.29626L16.427 0.914857C16.3059 0.792708 16.1617 0.695757 16.0029 0.629594C15.8441 0.563432 15.6738 0.529368 15.5017 0.529368C15.3297 0.529368 15.1594 0.563432 15.0006 0.629594C14.8417 0.695757 14.6976 0.792708 14.5765 0.914857L9.21242 6.25282C9.11583 6.34937 9.052 6.47382 9.02997 6.6086L8.56082 9.45222C8.54388 9.55526 8.55196 9.66086 8.58436 9.76013C8.61677 9.8594 8.67257 9.94943 8.74704 10.0226C8.82152 10.0958 8.9125 10.1501 9.01231 10.1807C9.11213 10.2114 9.21786 10.2177 9.32059 10.199L12.1199 9.69592Z" fill="#2E48B0"/>
</svg>
