<svg width="20" height="21" viewBox="0 0 20 21" fill="none" xmlns="http://www.w3.org/2000/svg">
<path d="M9.94896 7.64084C9.24719 7.64084 8.59002 7.9131 8.09244 8.41068C7.59721 8.90825 7.32261 9.56543 7.32261 10.2672C7.32261 10.969 7.59721 11.6261 8.09244 12.1237C8.59002 12.6189 9.24719 12.8936 9.94896 12.8936C10.6507 12.8936 11.3079 12.6189 11.8055 12.1237C12.3007 11.6261 12.5753 10.969 12.5753 10.2672C12.5753 9.56543 12.3007 8.90825 11.8055 8.41068C11.5625 8.16578 11.2732 7.97161 10.9545 7.83945C10.6358 7.7073 10.294 7.63979 9.94896 7.64084ZM19.6259 13.1682L18.0909 11.8562C18.1637 11.4102 18.2012 10.9549 18.2012 10.5019C18.2012 10.0489 18.1637 9.59124 18.0909 9.14765L19.6259 7.83565C19.7418 7.73638 19.8248 7.60417 19.8638 7.45659C19.9028 7.30902 19.8959 7.15307 19.8442 7.00948L19.823 6.94846C19.4006 5.76716 18.7676 4.67218 17.9548 3.71656L17.9125 3.66727C17.8138 3.55122 17.6823 3.46779 17.5352 3.42799C17.3881 3.38818 17.2325 3.39387 17.0887 3.4443L15.1829 4.1226C14.4788 3.54523 13.6949 3.0899 12.8452 2.77305L12.4767 0.780396C12.4489 0.630284 12.3761 0.492183 12.268 0.384443C12.1598 0.276702 12.0214 0.204421 11.8712 0.177203L11.8078 0.165467C10.5874 -0.0551558 9.30118 -0.0551558 8.08071 0.165467L8.01734 0.177203C7.86712 0.204421 7.72873 0.276702 7.62057 0.384443C7.51241 0.492183 7.4396 0.630284 7.41179 0.780396L7.04096 2.78244C6.19937 3.10181 5.41538 3.55604 4.71972 4.1273L2.79983 3.4443C2.65611 3.39347 2.50032 3.38758 2.35317 3.42741C2.20602 3.46723 2.07448 3.55089 1.97601 3.66727L1.93377 3.71656C1.12237 4.6732 0.489555 5.76791 0.0655089 6.94846L0.0443854 7.00948C-0.0612322 7.30287 0.025609 7.63145 0.262662 7.83565L1.81641 9.16173C1.74365 9.60298 1.70845 10.0536 1.70845 10.4996C1.70845 10.9502 1.74365 11.4008 1.81641 11.8374L0.267356 13.1635C0.151401 13.2627 0.0684109 13.3949 0.0294205 13.5425C-0.00956994 13.6901 -0.0027131 13.846 0.0490794 13.9896L0.070203 14.0507C0.49502 15.2312 1.12168 16.3226 1.93846 17.2825L1.98071 17.3318C2.07941 17.4479 2.21096 17.5313 2.35802 17.5711C2.50509 17.6109 2.66076 17.6052 2.80452 17.5548L4.72442 16.8718C5.42384 17.4468 6.20306 17.9022 7.04565 18.2167L7.41649 20.2187C7.44429 20.3688 7.51711 20.5069 7.62527 20.6147C7.73343 20.7224 7.87181 20.7947 8.02203 20.8219L8.0854 20.8336C9.31787 21.0555 10.5801 21.0555 11.8125 20.8336L11.8759 20.8219C12.0261 20.7947 12.1645 20.7224 12.2727 20.6147C12.3808 20.5069 12.4536 20.3688 12.4814 20.2187L12.8499 18.2261C13.6996 17.9069 14.4835 17.4539 15.1876 16.8765L17.0934 17.5548C17.2371 17.6056 17.3929 17.6115 17.5401 17.5717C17.6872 17.5319 17.8188 17.4482 17.9172 17.3318L17.9595 17.2825C18.7762 16.3179 19.4029 15.2312 19.8277 14.0507L19.8488 13.9896C19.9498 13.6986 19.8629 13.3724 19.6259 13.1682ZM9.94896 14.3933C7.66997 14.3933 5.82284 12.5462 5.82284 10.2672C5.82284 7.98821 7.66997 6.14107 9.94896 6.14107C12.228 6.14107 14.0751 7.98821 14.0751 10.2672C14.0751 12.5462 12.228 14.3933 9.94896 14.3933Z" fill="#2E48B0"/>
</svg>
